{
  "asset": {
    "version": "2.0",
    "generator": "THREE.GLTFExporter r174"
  },
  "scenes": [
    {
      "name": "Scene",
      "nodes": [
        3
      ]
    }
  ],
  "scene": 0,
  "nodes": [
    {
      "name": "mesh_0",
      "mesh": 0
    },
    {
      "name": "mesh_1",
      "mesh": 1
    },
    {
      "name": "mesh_2",
      "mesh": 2
    },
    {
      "matrix": [
        2.052371699388531,
        -3.70645293962367,
        9.05814423675755,
        0,
        9.655649692784728,
        2.2787188465767856,
        -1.255336380609556,
        0,
        -1.598811876918348,
        9.003868447762372,
        4.046498925937584,
        0,
        0,
        0,
        0,
        1
      ],
      "name": "map.gltf",
      "children": [
        0,
        1,
        2
      ]
    }
  ],
  "bufferViews": [
    {
      "buffer": 0,
      "byteOffset": 0,
      "byteLength": 10716,
      "target": 34962,
      "byteStride": 12
    },
    {
      "buffer": 0,
      "byteOffset": 10716,
      "byteLength": 10716,
      "target": 34962,
      "byteStride": 12
    },
    {
      "buffer": 0,
      "byteOffset": 21432,
      "byteLength": 7144,
      "target": 34962,
      "byteStride": 8
    },
    {
      "buffer": 0,
      "byteOffset": 28576,
      "byteLength": 12696,
      "target": 34963
    },
    {
      "buffer": 0,
      "byteOffset": 41272,
      "byteLength": 93876,
      "target": 34962,
      "byteStride": 12
    },
    {
      "buffer": 0,
      "byteOffset": 135148,
      "byteLength": 93876,
      "target": 34962,
      "byteStride": 12
    },
    {
      "buffer": 0,
      "byteOffset": 229024,
      "byteLength": 62584,
      "target": 34962,
      "byteStride": 8
    },
    {
      "buffer": 0,
      "byteOffset": 291608,
      "byteLength": 111192,
      "target": 34963
    },
    {
      "buffer": 0,
      "byteOffset": 402800,
      "byteLength": 184464,
      "target": 34962,
      "byteStride": 12
    },
    {
      "buffer": 0,
      "byteOffset": 587264,
      "byteLength": 184464,
      "target": 34962,
      "byteStride": 12
    },
    {
      "buffer": 0,
      "byteOffset": 771728,
      "byteLength": 122976,
      "target": 34962,
      "byteStride": 8
    },
    {
      "buffer": 0,
      "byteOffset": 894704,
      "byteLength": 218640,
      "target": 34963
    }
  ],
  "buffers": [
    {
      "byteLength": 1113344,
      "uri": "data:application/octet-stream;base64,"
    }
  ],
  "accessors": [
    {
      "bufferView": 0,
      "componentType": 5126,
      "count": 893,
      "max": [
        0.9999642968177795,
        0.7856589555740356,
        1
      ],
      "min": [
        -0.9999955892562866,
        -1,
        -1
      ],
      "type": "VEC3"
    },
    {
      "bufferView": 1,
      "componentType": 5126,
      "count": 893,
      "max": [
        -0.10223237425088882,
        -0.19743922352790833,
        0.006000000052154064
      ],
      "min": [
        -0.10775801539421082,
        -0.20628681778907776,
        -0.006000000052154064
      ],
      "type": "VEC3"
    },
    {
      "bufferView": 2,
      "componentType": 5126,
      "count": 893,
      "max": [
        0.8679327964782715,
        1
      ],
      "min": [
        0,
        0
      ],
      "type": "VEC2"
    },
    {
      "bufferView": 3,
      "componentType": 5125,
      "count": 3174,
      "max": [
        892
      ],
      "min": [
        0
      ],
      "type": "SCALAR"
    },
    {
      "bufferView": 4,
      "componentType": 5126,
      "count": 7823,
      "max": [
        0.9999998807907104,
        0.9999992251396179,
        1
      ],
      "min": [
        -0.9999997019767761,
        -1,
        -1
      ],
      "type": "VEC3"
    },
    {
      "bufferView": 5,
      "componentType": 5126,
      "count": 7823,
      "max": [
        0.10777003318071365,
        0.23668310046195984,
        0.006000000052154064
      ],
      "min": [
        -0.1076214388012886,
        -0.2367001473903656,
        -0.006000000052154064
      ],
      "type": "VEC3"
    },
    {
      "bufferView": 6,
      "componentType": 5126,
      "count": 7823,
      "max": [
        1,
        1
      ],
      "min": [
        0,
        0.029518425464630127
      ],
      "type": "VEC2"
    },
    {
      "bufferView": 7,
      "componentType": 5125,
      "count": 27798,
      "max": [
        7822
      ],
      "min": [
        0
      ],
      "type": "SCALAR"
    },
    {
      "bufferView": 8,
      "componentType": 5126,
      "count": 15372,
      "max": [
        0.9999997019767761,
        1,
        1
      ],
      "min": [
        -1,
        -1,
        -1
      ],
      "type": "VEC3"
    },
    {
      "bufferView": 9,
      "componentType": 5126,
      "count": 15372,
      "max": [
        0.11177000403404236,
        0.2407001554965973,
        0.006000000052154064
      ],
      "min": [
        -0.11177000403404236,
        -0.2407001554965973,
        -0.006000000052154064
      ],
      "type": "VEC3"
    },
    {
      "bufferView": 10,
      "componentType": 5126,
      "count": 15372,
      "max": [
        0.9963998794555664,
        1
      ],
      "min": [
        0,
        0
      ],
      "type": "VEC2"
    },
    {
      "bufferView": 11,
      "componentType": 5125,
      "count": 54660,
      "max": [
        15371
      ],
      "min": [
        0
      ],
      "type": "SCALAR"
    }
  ],
  "materials": [
    {
      "pbrMetallicRoughness": {
        "baseColorFactor": [
          0,
          0,
          0,
          1
        ],
        "metallicFactor": 0,
        "roughnessFactor": 1
      },
      "emissiveFactor": [
        0,
        0,
        0
      ],
      "doubleSided": true,
      "extensions": {
        "KHR_materials_emissive_strength": {
          "emissiveStrength": 10
        }
      }
    },
    {
      "pbrMetallicRoughness": {
        "baseColorFactor": [
          0,
          0,
          0,
          1
        ],
        "metallicFactor": 0,
        "roughnessFactor": 1
      },
      "emissiveFactor": [
        0,
        0,
        0
      ],
      "doubleSided": true,
      "extensions": {
        "KHR_materials_emissive_strength": {
          "emissiveStrength": 10
        }
      }
    },
    {
      "pbrMetallicRoughness": {
        "baseColorFactor": [
          1,
          0.5711248294565854,
          0.007499032040460618,
          1
        ],
        "metallicFactor": 0,
        "roughnessFactor": 0.4
      },
      "emissiveFactor": [
        1,
        0.5711248294565854,
        0.007499032040460618
      ],
      "doubleSided": true,
      "extensions": {
        "KHR_materials_emissive_strength": {
          "emissiveStrength": 0.4
        }
      }
    }
  ],
  "meshes": [
    {
      "primitives": [
        {
          "mode": 4,
          "attributes": {
            "NORMAL": 0,
            "POSITION": 1,
            "TEXCOORD_0": 2
          },
          "indices": 3,
          "material": 0
        }
      ]
    },
    {
      "primitives": [
        {
          "mode": 4,
          "attributes": {
            "NORMAL": 4,
            "POSITION": 5,
            "TEXCOORD_0": 6
          },
          "indices": 7,
          "material": 1
        }
      ]
    },
    {
      "primitives": [
        {
          "mode": 4,
          "attributes": {
            "NORMAL": 8,
            "POSITION": 9,
            "TEXCOORD_0": 10
          },
          "indices": 11,
          "material": 2
        }
      ]
    }
  ],
  "extensionsUsed": [
    "KHR_materials_emissive_strength"
  ]
}